<svg width="33" height="41" viewBox="0 0 33 41" fill="none" xmlns="http://www.w3.org/2000/svg">
<g clip-path="url(#clip0_4_147)">
<path d="M11.5773 9.33994C11.1869 9.73314 10.46 9.4327 10.4739 8.84705C10.4836 8.46077 10.8698 7.45977 11.0457 7.07349C11.3392 6.43107 11.7573 5.85927 12.163 5.28747C11.2229 4.95103 10.2108 4.58967 9.74146 3.63159C9.52686 3.48344 7.82667 7.0638 7.72976 7.36701C6.77029 7.99004 6.73291 7.13164 6.39509 6.53491C6.05726 5.93819 5.48823 5.2487 5.02303 4.75997C4.80982 4.53567 3.38792 3.19962 3.2287 3.15808C2.64167 3.00302 1.34715 4.65197 1.42883 5.28331C2.8978 7.04857 5.0798 9.08934 4.53845 11.6216C4.15356 13.4187 2.78012 15.2601 2.11832 17.0295C1.32915 19.1368 1.20177 21.2191 1.79296 23.4052C1.87741 23.5437 2.02002 23.3831 2.11832 23.3249C3.4793 22.5219 5.01472 20.7594 5.93543 19.4746C6.28571 18.9859 6.93089 17.3272 7.70345 18.0998C8.08696 18.4833 7.72837 18.9914 7.51793 19.3624C6.28156 21.5361 4.24493 23.4564 2.16262 24.8133C3.68559 29.1731 6.26356 33.5994 9.74146 36.6813C16.5699 42.7317 21.3686 36.6827 23.7638 30.2032C25.4543 25.6301 25.8531 21.9432 24.4533 17.2067C24.3315 16.7942 23.977 16.2362 24.0629 15.8167C24.1639 15.3307 24.8576 15.1826 25.1608 15.5523C25.3975 15.8402 25.8254 17.3743 25.9403 17.8173C27.0783 22.173 26.6118 25.8724 25.158 30.0633C23.2377 35.5959 18.5844 43.1318 11.677 39.586C6.07111 36.7076 -0.197972 26.375 0.139849 20.0561C0.30876 16.8911 1.91341 15.0344 2.9781 12.3222C3.73266 10.4005 3.20101 9.41332 1.99371 7.87097C1.50083 7.24102 0.829337 6.70106 0.347526 6.12787C-0.279659 5.38438 0.66458 3.48067 1.26961 2.86595C1.68912 2.4409 2.94072 1.66973 3.52914 1.81095C3.78528 1.87187 4.91642 2.89364 5.18502 3.14562C5.92297 3.83926 6.58061 4.60628 7.20087 5.40515C8.45524 3.01132 10.071 -0.196596 13.3467 0.634113C14.2813 0.870865 15.2754 1.60604 15.393 2.62366C15.598 4.40276 14.363 4.74335 13.373 5.84958C12.894 6.38539 12.4066 7.08733 12.1256 7.74913C11.9885 8.07172 11.7199 9.19595 11.5773 9.33994ZM10.7286 2.35645C10.3063 3.07778 11.8224 3.90849 12.4025 3.99848C14.482 4.31969 14.8628 2.13493 12.8151 1.81095C12.3056 1.73065 11.8321 1.77634 11.3586 1.97571C11.281 2.00894 10.7494 2.32322 10.73 2.35506L10.7286 2.35645Z" fill="black"/>
<path d="M21.6881 5.48841C22.5395 5.43026 23.3813 5.24612 24.23 5.16582C25.0787 5.08552 26.6197 4.85707 27.3632 5.25997C28.6106 5.93838 28.8889 7.60118 28.0153 8.70879C27.2386 9.69318 25.9939 9.55888 24.8766 9.76795C24.7451 9.79287 24.7354 9.71257 24.7534 9.92578C24.9846 9.95347 25.2227 10.0075 25.4429 10.085C26.4993 10.4602 26.8454 10.7994 28.0818 10.6319C29.2254 10.4768 29.5272 9.73472 30.8508 10.1639C31.687 10.4353 32.1065 11.1095 32.0165 11.9846C31.9404 12.7183 31.2163 12.9426 30.6445 13.2362C31.1083 13.9589 32.5108 14.665 32.4001 15.594C32.2616 16.7639 31.1498 17.6971 29.9675 17.5849C28.9761 17.4908 28.5289 16.8027 27.8104 16.2696C25.879 14.8353 23.4561 13.7678 21.4818 15.8155C21.0567 16.2572 20.6871 17.3495 20.0516 17.2568C18.656 17.0505 20.4406 15.0208 20.921 14.6096C23.9074 12.0593 27.3272 14.0392 29.7764 16.2406C30.1945 16.5756 31.3063 15.9304 31.0917 15.4971C31.0308 15.3738 30.2499 14.6442 30.0796 14.485C29.7321 14.1596 28.8072 13.574 28.7906 13.106C28.7699 12.5176 29.6546 12.3708 30.0796 12.1479C30.2956 12.0344 31.0322 11.7007 30.668 11.4543C30.1004 11.068 29.397 11.6093 28.8031 11.7589C28.5165 11.8309 28.0651 11.9222 27.7772 11.943C26.2556 12.0538 25.1286 11.2009 23.6388 10.9185C20.2759 10.2816 18.3943 11.4612 16.4892 14.1319C16.2303 14.4947 15.6613 15.5968 15.4467 15.7934C14.9718 16.2267 14.2089 15.8003 14.3764 15.1717C14.4803 14.7813 15.3927 13.4674 15.6807 13.0811C17.8087 10.2235 20.1319 9.41905 23.5267 8.74202C24.4128 8.5648 25.7835 8.49419 26.5643 8.22837C27.5044 7.90854 27.4947 6.59602 26.5643 6.29974C25.7073 6.32189 24.8392 6.36896 23.9877 6.45757C23.1363 6.54618 21.6119 6.95738 20.8366 6.94354C20.4628 6.93661 20.1485 6.65002 20.1568 6.26512C20.172 5.61025 20.8352 4.27419 20.7951 3.67747C20.7549 3.08074 19.7511 2.82045 19.4701 3.31472C19.2056 3.77854 19.1378 5.24612 18.8997 5.89131C17.9513 8.45543 12.6153 9.98531 10.9678 12.89C10.7656 13.2458 10.4209 14.3673 10.2838 14.5071C9.89616 14.9017 9.1679 14.5985 9.18036 14.0143C9.21221 12.5937 11.0328 10.6623 12.0892 9.8164C13.3921 8.77248 17.1829 6.80785 17.709 5.42888C18.1894 4.16759 17.7588 2.51032 19.2998 1.93575C20.3451 1.54532 21.4859 2.02159 21.9068 3.0489C22.2986 4.00421 21.7518 4.53864 21.6853 5.4898L21.6881 5.48841Z" fill="black"/>
<path d="M19.2665 26.551C19.7594 27.0578 20.8324 29.6053 19.4742 29.536C18.7612 29.5 18.901 28.5752 18.6906 28.0546C18.2863 27.0578 16.2774 25.3687 15.3941 24.6529C15.2916 24.5698 15.131 24.4341 15.0285 24.3718C14.9399 24.3192 14.9829 24.2403 14.8707 24.3732C14.789 24.4715 14.1826 25.8297 14.1798 25.9432C14.5135 28.571 15.1088 30.8707 16.7675 32.9641C17.0915 33.3739 17.9194 33.8613 17.4141 34.4829C16.665 35.4064 15.401 33.1067 14.9482 32.6858L13.5111 34.5148C12.751 34.9799 12.1308 34.368 12.6139 33.5774C12.8687 33.1593 14.2491 31.7125 14.2587 31.3539C13.77 30.1715 13.428 28.9352 13.1733 27.6794C13.0598 27.534 13.0584 27.6545 12.9836 27.7348C12.1903 28.5835 12.0048 29.1581 11.5063 30.1314C11.2211 30.6893 10.1564 32.7315 9.36172 31.9354C8.82592 31.3996 9.52094 30.9524 9.77569 30.58C10.1675 30.0054 10.4956 29.3976 10.7102 28.7316C10.1994 28.6929 9.72585 28.7621 9.23989 28.9158C8.87437 29.0321 8.15166 29.5236 7.91906 29.5374C7.33341 29.572 7.02189 28.823 7.4594 28.4049C7.95921 27.9272 9.49464 27.4856 10.1855 27.4413C10.5164 27.4205 11.4385 27.577 11.5963 27.48C11.6808 27.4288 12.283 26.5746 12.3883 26.4167C12.7538 25.8615 13.1719 25.0918 13.4419 24.4839C13.5623 24.214 13.914 23.4622 13.8434 23.2213C13.8143 23.1216 13.0251 22.241 12.8701 22.0112C12.4298 21.3563 11.7666 20.0189 11.7639 19.238C11.7625 18.6482 12.4713 18.3533 12.8659 18.7479C13.0196 18.9016 13.2148 19.9677 13.3588 20.3138C13.8185 21.4173 14.8499 22.475 15.7125 23.2863C16.0392 23.5937 17.5691 24.9879 17.846 25.1084C18.4649 25.3756 20.6067 25.3728 21.3156 25.2551C21.5579 25.215 21.8556 25.0308 22.0577 25.0239C22.6378 25.0045 22.9466 25.7411 22.552 26.1288C22.4329 26.2451 21.4831 26.5538 21.3225 26.5538H19.2652L19.2665 26.551Z" fill="#157DC1"/>
</g>
<defs>
<clipPath id="clip0_4_147">
<rect width="32.2799" height="40" fill="white" transform="translate(0.127014 0.5)"/>
</clipPath>
</defs>
</svg>
