<svg width="36" height="36" viewBox="0 0 36 36" fill="none" xmlns="http://www.w3.org/2000/svg">
<g clip-path="url(#clip0_30_129)">
<path d="M34.5609 2.60015C36.2473 4.32541 35.9755 6.62211 34.8974 8.5853C34.7033 8.93971 33.8272 9.99896 33.7824 10.1533C33.7197 10.3713 33.7884 10.6799 33.7475 10.9377C33.3324 13.566 29.3762 15.9254 27.6688 13.4037C26.0073 10.9507 29.2487 7.25726 31.9645 7.92526C32.8615 6.69378 33.6898 4.82716 31.7535 4.10141C29.5125 3.26218 26.8216 5.44937 25.9824 7.41853C24.6613 10.5156 26.7101 13.5849 26.6165 16.6969C26.5309 19.5501 24.8007 21.6577 23.6936 24.1326C22.4661 26.8763 21.8848 29.8678 21.6956 32.8654C21.6409 33.7305 21.7573 34.6066 21.616 35.4677C21.5154 36.082 20.6672 36.0212 20.5836 35.3154C20.5487 35.0217 20.6513 34.8346 20.6553 34.5807C20.724 30.3875 21.2148 26.8394 23.0475 23.0375C23.9127 21.2425 25.2009 19.5212 25.4856 17.5023C25.9854 13.9642 23.5164 10.8561 24.9381 7.19255C26.0073 4.43691 29.8172 1.65041 32.7261 3.42545C34.6465 4.59719 34.0492 6.81524 32.9461 8.34737L33.431 8.90487C34.8815 7.08304 35.4529 4.39908 33.2697 2.88188C31.6091 1.72706 29.5205 2.00482 27.8301 2.93066C27.4936 3.11484 26.5319 3.91027 26.2761 3.9043C24.5817 3.1228 22.8186 2.45281 20.9649 2.14519C17.2117 1.52298 13.6397 2.26067 10.2579 3.9043C10.0021 3.91127 9.07721 3.14072 8.75067 2.95754C4.03981 0.322365 -0.468969 4.41302 3.10301 8.90785L3.58783 8.35035C2.30558 6.60419 1.90239 4.14422 4.30561 3.18054C7.20361 2.01876 10.5715 4.55538 11.5969 7.19553C13.0653 10.9766 10.3575 14.2579 11.1499 18.0001C11.5342 19.8139 12.695 21.3948 13.4874 23.0405C15.2406 26.6771 16.035 31.1421 15.9633 35.176C15.9484 36.0073 15.0594 36.1029 14.929 35.5334C14.7438 34.7241 14.8911 33.7016 14.8384 32.8674C14.6482 29.8698 14.0678 26.8792 12.8403 24.1346C11.8757 21.9762 10.3266 19.9832 10.005 17.5809C9.39379 13.0124 13.5681 8.14328 8.15534 4.67584C5.15978 2.75645 1.97507 4.68281 4.56943 7.92725C7.30416 7.24531 10.5655 11.0164 8.83529 13.4505C7.2295 15.7093 3.67644 13.7939 2.95567 11.5888C2.78245 11.0592 2.8591 10.5365 2.75059 10.1543C2.70778 10.0039 1.82972 8.93573 1.63559 8.5863C0.420043 6.38616 0.316507 3.93914 2.39419 2.23777C4.77252 0.288516 8.04285 1.04612 10.3306 2.71961C15.369 0.286525 21.166 0.283539 26.2044 2.71961C28.5927 0.912717 32.2752 0.262633 34.5609 2.60015ZM4.90891 8.92577C3.11296 9.2314 3.81481 11.6067 4.7775 12.5236C5.60578 13.3121 7.46643 13.9542 8.09959 12.6381C8.90498 10.9626 6.67996 8.62413 4.90791 8.92577H4.90891ZM30.9172 8.92677C29.3682 9.13683 27.4976 11.4445 28.5867 12.8581C29.408 13.9253 31.1054 13.2125 31.869 12.4111C33.0736 11.1458 33.2289 8.61218 30.9172 8.92677Z" fill="black"/>
<path d="M22.8604 5.73008C22.9729 5.83959 23.1411 6.1044 23.1899 6.25771C23.4159 6.96554 22.8504 8.28064 22.7479 9.10295C22.3895 11.9751 23.5582 14.4032 23.3333 17.1409C23.2058 18.6939 22.2491 20.3266 21.7135 21.7811C20.4363 25.2485 20.037 29.0345 19.9026 32.713C19.8728 33.5204 20.0181 34.6474 19.9016 35.394C19.8101 35.9844 18.935 36.1526 18.8593 35.3273C18.7638 34.28 18.8991 33.163 18.94 32.1227C19.0684 28.9111 19.3481 25.6975 20.3158 22.6183C20.7558 21.2166 21.4636 19.9204 21.9186 18.5575C22.9649 15.4246 21.3133 12.3753 21.7036 9.02729C21.7991 8.20697 22.061 7.43941 22.2183 6.63502C22.1535 6.26369 21.5672 6.40804 21.2924 6.36324C20.05 6.16015 19.2695 5.52898 17.9275 5.62356C17.0116 5.68827 16.1425 6.21988 15.1729 6.3712C14.916 6.41103 14.3774 6.26667 14.3137 6.63502C14.2779 6.84408 14.7737 8.55939 14.8284 9.02729C15.2226 12.3693 13.5651 15.4206 14.6134 18.5575C15.1291 20.1026 15.8966 21.5272 16.3655 23.14C17.3362 26.477 17.9106 31.7882 17.6726 35.2517C17.6537 35.5314 17.6478 35.7922 17.3143 35.8649C16.9808 35.9376 16.6831 35.7295 16.6303 35.393C16.5168 34.6633 16.6592 33.5732 16.6293 32.7857C16.48 28.9001 16.0509 25.0554 14.6711 21.4048C14.1614 20.0548 13.3421 18.671 13.2077 17.2046C12.9568 14.4719 14.1285 12.0189 13.793 9.16666C13.7015 8.38417 13.1778 7.07803 13.2903 6.42596C13.3909 5.84457 13.9464 5.41151 14.5078 5.33386C15.5741 5.18652 15.8747 5.04017 16.8493 4.76939C19.0156 4.16709 19.4726 5.0113 21.2416 5.29404C21.84 5.38961 22.3596 5.24227 22.8584 5.72709L22.8604 5.73008Z" fill="#157DC1"/>
</g>
<defs>
<clipPath id="clip0_30_129">
<rect width="34.999" height="35" fill="white" transform="translate(0.767487 0.893799)"/>
</clipPath>
</defs>
</svg>
