<svg width="145" height="50" viewBox="0 0 145 50" fill="none" xmlns="http://www.w3.org/2000/svg">
<path d="M48.8696 32.689C48.8696 35.962 46.2777 38.617 43.0818 38.617H37.7409V44.0752C37.7409 47.3482 35.149 49.9968 31.9531 49.9968C28.7571 49.9968 26.1653 47.345 26.1653 44.0752V38.8094C31.6541 36.8449 36.015 32.3832 37.935 26.7674H43.0818C46.2808 26.7674 48.8696 29.4192 48.8696 32.689Z" fill="#5FC1A3"/>
<path d="M39.0075 10.1753V20.3002C39.0075 22.5642 38.6285 24.743 37.9319 26.7674H37.3156C31.1641 26.7674 26.1622 31.885 26.1622 38.185V38.8094C24.1836 39.522 22.054 39.9098 19.8412 39.9098H9.94527C4.45025 39.9098 0 35.3566 0 29.7345C0 24.1124 4.45025 19.5592 9.94527 19.5592H19.1139V10.1785C19.117 4.5595 23.5672 0 29.0623 0C34.5573 0 39.0075 4.5595 39.0075 10.1753Z" fill="#157DC1"/>
<path d="M37.9319 26.7674C36.0119 32.3832 31.651 36.8449 26.1622 38.8094V38.185C26.1622 31.885 31.1641 26.7674 37.3156 26.7674H37.9319Z" fill="#17624D"/>
<path d="M57.2493 27.0764V10.1438H61.5978C65.4563 10.1438 67.324 11.6983 67.324 14.5677C67.324 16.1947 66.3655 17.5821 64.7999 18.0583V18.1529C66.8093 18.5596 68.19 20.0889 68.19 22.2425C68.19 25.4462 66.1559 27.0732 61.6903 27.0732H57.2493V27.0764ZM59.5391 17.4371H61.7118C64.0017 17.4371 65.1019 16.529 65.1019 14.6875C65.1019 13.0132 64.0263 12.1524 61.456 12.1524H59.5391V17.4371ZM59.5391 25.0678H61.5978C64.6828 25.0678 65.8755 24.1597 65.8755 22.1732C65.8755 20.1867 64.6366 19.2313 61.832 19.2313H59.5422V25.0678H59.5391Z" fill="#157DC1"/>
<path d="M71.0962 10.1438H73.386V24.948H81.1L80.8411 27.0764H71.0931V10.1438H71.0962Z" fill="#157DC1"/>
<path d="M81.5654 18.6101C81.5654 13.5871 85.2359 9.68972 90.4258 9.68972C95.6158 9.68972 99.2616 13.5871 99.2616 18.6101C99.2616 23.6331 95.5449 27.5304 90.4258 27.5304C85.3068 27.5304 81.5654 23.6331 81.5654 18.6101ZM96.8516 18.6101C96.8516 14.7821 94.2104 11.8906 90.4228 11.8906C86.6351 11.8906 83.9693 14.7853 83.9693 18.6101C83.9693 22.4349 86.6567 25.3295 90.4228 25.3295C94.1888 25.3295 96.8516 22.3876 96.8516 18.6101Z" fill="#157DC1"/>
<path d="M101.416 18.6101C101.416 13.5871 105.086 9.68972 110.276 9.68972C115.466 9.68972 119.112 13.5871 119.112 18.6101C119.112 23.6331 115.395 27.5304 110.276 27.5304C105.157 27.5304 101.416 23.6331 101.416 18.6101ZM116.702 18.6101C116.702 14.7821 114.061 11.8906 110.273 11.8906C106.486 11.8906 103.82 14.7853 103.82 18.6101C103.82 22.4349 106.507 25.3295 110.273 25.3295C114.039 25.3295 116.702 22.3876 116.702 18.6101Z" fill="#157DC1"/>
<path d="M130.635 21.2651H130.682L136.106 10.1438H139.144V27.0764H136.901V13.1803H136.855L130.848 25.2349H130.429L124.398 13.1803H124.351L124.376 27.0764H122.108V10.1438H125.171L130.641 21.2651H130.635Z" fill="#157DC1"/>
<path d="M57.2493 43.6558V30.1034H59.083V35.9431H66.0234V30.1034H67.8571V43.6558H66.0234V37.6458H59.083V43.6558H57.2493Z" fill="#5FC1A3"/>
<path d="M70.9822 30.1003H78.7085L78.8965 31.7841H72.8159V35.8801H78.428V37.5449H72.8159V41.9657H78.8965L78.7085 43.6495H70.9822V30.0971V30.1003Z" fill="#5FC1A3"/>
<path d="M91.0268 43.6558L89.6985 40.2661H83.5039L82.1941 43.6558H80.1724L85.803 30.1034H87.4487L93.0424 43.6558H91.0206H91.0268ZM84.1203 38.7148H89.0791L87.4888 34.6945C87.1529 33.8147 86.8539 33.0296 86.6105 32.2634H86.5735C86.3115 33.0296 86.0311 33.8147 85.6766 34.6945L84.1234 38.7148H84.1203Z" fill="#5FC1A3"/>
<path d="M94.5987 30.1003H96.4324V41.9499H102.605L102.399 43.6526H94.5956V30.1003H94.5987Z" fill="#5FC1A3"/>
<path d="M105.752 31.8061H101.262V30.1034H112.076V31.8061H107.586V43.6558H105.752V31.8061Z" fill="#5FC1A3"/>
<path d="M113.762 43.6558V30.1034H115.596V35.9431H122.536V30.1034H124.37V43.6558H122.536V37.6458H115.596V43.6558H113.762Z" fill="#5FC1A3"/>
</svg>
