<svg width="42" height="27" viewBox="0 0 42 27" fill="none" xmlns="http://www.w3.org/2000/svg">
<g clip-path="url(#clip0_5_250)">
<path d="M0.766998 11.6302V11.1586C0.858821 11.0851 0.913274 10.9475 1.0083 10.8855C1.26241 10.7195 2.61627 10.7164 2.96434 10.7699C3.72241 10.8865 3.70213 11.9937 2.72838 12.1019C2.11551 12.1701 1.09265 12.2269 0.766998 11.6302Z" fill="#157DC1"/>
<path d="M41.767 11.1586V11.6302C41.5182 12.2699 39.6636 12.2311 39.2792 11.9097C38.865 11.563 38.9963 10.8571 39.5686 10.7699C39.9167 10.7164 41.2705 10.7185 41.5246 10.8855C41.6197 10.9475 41.6741 11.0851 41.7659 11.1586H41.767Z" fill="#157DC1"/>
<path d="M37.8688 4.52938C37.6638 4.34556 37.6392 4.01363 37.7193 3.76363C37.7674 3.61552 39.2259 2.16279 39.3849 2.09766C40.1345 1.79514 40.7089 2.48422 40.2071 3.14073C40.0597 3.33296 38.8863 4.49157 38.7176 4.58716C38.4411 4.74367 38.1101 4.74682 37.8688 4.52938Z" fill="#157DC1"/>
<path d="M3.94769 18.1733C4.56269 18.0368 5.04209 18.4842 4.79011 19.0809C4.7442 19.1891 3.35939 20.5767 3.20991 20.6733C2.59597 21.0725 1.91371 20.4811 2.18918 19.8277C2.26819 19.6397 3.75764 18.2153 3.94662 18.1733H3.94769Z" fill="#157DC1"/>
<path d="M2.58637 2.0546C2.83941 1.99893 3.02947 2.02624 3.24621 2.15964C3.39996 2.25418 4.63103 3.46321 4.72712 3.61447C5.13178 4.24578 4.46553 4.95271 3.81637 4.58716C3.6765 4.50838 2.34827 3.20586 2.25217 3.05775C2.02155 2.70061 2.14327 2.15229 2.58637 2.05565V2.0546Z" fill="#157DC1"/>
<path d="M38.0599 18.1733C38.2767 18.1103 38.5553 18.1449 38.7539 18.2458C38.865 18.3015 40.1569 19.5578 40.2455 19.6901C40.6812 20.3414 40.0565 21.0305 39.3348 20.6639C39.2088 20.5998 37.951 19.3718 37.8432 19.2195C37.6062 18.8844 37.636 18.2983 38.0599 18.1744V18.1733Z" fill="#157DC1"/>
<path d="M27.0486 1.54939C30.6073 1.38973 33.7976 3.89813 34.3923 7.33511C36.1444 7.72376 37.3317 9.24582 37.1139 11.0326C37.0862 11.2595 36.8876 11.6618 36.9025 11.8151C36.9196 11.9853 37.3285 12.6576 37.4203 12.9496C37.8699 14.3908 37.7022 15.7175 36.9762 17.0294C36.5502 17.7994 36.4509 18.0536 36.1199 18.8624C35.5946 20.146 34.6806 21.2605 33.5285 22.0462C34.2546 23.3624 35.0372 24.8393 33.8798 26.1765C33.0331 27.1555 31.5426 27.2616 30.5176 26.4885C30.2485 26.2857 30.0201 25.957 29.7563 25.7427C28.3555 24.604 26.1913 24.5925 24.9527 23.0683C24.6046 22.6397 24.4626 22.1408 24.2139 21.6681L22.2845 21.313C19.7775 23.6681 15.5857 22.978 14.0642 19.9233C8.74276 21.2343 4.02029 16.166 5.99128 11.0588C6.1162 10.7343 6.64579 9.95485 6.68102 9.76368C6.72053 9.54309 6.58172 9.02838 6.61375 8.68174C6.72586 7.48637 7.62381 6.36662 8.76198 5.95695C8.8175 3.28679 11.5231 1.49792 14.092 2.26158C15.9156 -0.116575 19.3227 -0.722667 21.8681 0.938047C23.4099 -0.474768 25.9756 -0.297247 27.0476 1.54939H27.0486ZM21.0929 2.05254C19.0878 0.732165 16.2669 1.29939 15.0049 3.3204C14.6461 3.89498 14.4134 5.51158 13.4407 4.88553C12.8257 4.49057 13.4631 3.5767 13.3392 3.4538C11.7612 3.24792 10.3998 4.1975 10.1361 5.73322C10.9807 5.80149 12.0996 6.27943 12.5748 6.99582C12.972 7.59456 12.5641 8.22901 11.8594 8.09141C11.6117 8.04309 11.3277 7.59141 11.0917 7.42964C9.25633 6.17229 7.03657 8.39708 8.37441 10.1765C8.69472 10.6019 9.80834 11.0946 9.02037 11.7542C8.46303 12.2206 7.91422 11.6261 7.53198 11.2395C7.33125 11.1954 7.08995 12.0841 7.05151 12.2584C6.18987 16.1502 9.62576 19.5588 13.5709 18.6208L13.4898 17.5389C12.1787 17.3855 10.9615 16.395 10.8579 15.0504C10.8109 14.4422 11.2028 13.8257 11.8487 14.1576C12.4178 14.4496 12.0228 15.3887 12.9122 15.9433C13.0841 16.0504 13.6403 16.3299 13.7621 16.0935C14.0546 15.5273 14.1368 14.4307 15.1052 14.7332C15.9679 15.0032 15.1661 16.0599 15.0252 16.5494C14.0866 19.8204 17.5802 22.5704 20.6274 20.8708C21.2691 20.5126 21.5862 19.7836 22.3422 19.8908C23.3565 20.0347 23.9288 20.4233 25.1492 20.3572C25.8101 20.3215 27.5035 19.6156 27.6562 20.5746C27.8056 21.5074 26.3151 21.5263 25.6702 21.6166C26.6365 23.5147 28.9961 23.3824 30.5923 24.6849C31.2308 25.2059 31.4294 25.895 32.4555 25.5662C33.7421 25.1534 32.7342 23.4706 32.3904 22.7227C32.2729 22.6397 30.7963 23.396 30.2411 23.0651C29.8225 22.8162 29.8172 22.2122 30.2048 21.9412C30.4589 21.7637 31.5095 21.6061 31.9718 21.396C32.5943 21.1135 33.3492 20.5557 33.7997 20.0452C33.8777 19.957 34.3848 19.3246 34.3186 19.2584C32.8506 19.8067 31.1935 19.6828 29.8417 18.8981C29.6912 18.8109 29.1275 18.3467 29.0762 18.3414C28.9822 18.332 28.4463 18.5357 28.1975 18.5525C27.2333 18.6208 26.3397 18.2416 25.7535 17.4864C25.493 17.1502 25.1823 16.5137 25.6414 16.2007C26.3781 15.6975 26.6077 16.4874 26.991 16.8215C27.8932 17.6082 29.246 17.1187 29.4029 15.9559C29.4627 15.5168 29.2033 15.249 29.1904 14.8897C29.1648 14.1586 30.1258 13.9317 30.508 14.625C31.0077 15.5315 30.7941 16.7437 30.1557 17.5242C33.3566 19.6775 37.4502 16.6177 36.0003 13.0441C35.6052 13.5053 34.3592 13.9811 34.2418 13.0767C34.1553 12.4107 34.9817 12.2395 35.3586 11.7448C36.5085 10.2385 35.0885 8.23322 33.2435 8.72376C32.7299 8.86032 32.2057 9.49582 31.7113 8.96116C31.028 8.22166 32.3039 7.49477 32.9573 7.46011C32.6242 4.91494 30.1663 2.98216 27.5932 2.90128C27.7106 3.55674 27.3625 4.11872 26.6279 3.88868C26.1304 3.73322 26.2585 3.0704 26.1293 2.64918C25.6051 0.935946 23.0458 0.863467 22.4308 2.51158C22.2279 3.05359 22.4233 4.05885 21.4731 3.92124C20.6082 3.79519 21.0438 2.60822 21.0929 2.05254Z" fill="black"/>
<path d="M23.207 14.7931C22.7308 16.2637 21.1197 17.4254 19.5448 17.4548C19.0013 17.4653 18.5935 17.1124 18.7216 16.5609C18.8497 16.0095 19.6612 16.1261 20.147 15.9947C20.7171 15.8414 21.5788 15.3057 21.6674 14.6964C20.9552 14.7752 18.9373 13.6607 18.7408 13.0494C18.5838 12.563 18.9447 12.0494 19.4583 12.1019C19.7231 12.1282 20.4395 12.8666 20.8122 13.0588C22.7201 14.0431 25.0093 13.1985 25.8464 11.2899C26.061 10.7994 26.0332 10.0221 26.7507 10.0515C28.2178 10.1124 26.8063 12.5074 26.3525 13.0462C25.556 13.9926 24.4263 14.562 23.207 14.7931Z" fill="#157DC1"/>
<path d="M16.2765 10.8981C15.8249 11.3036 15.1661 10.9706 15.1052 10.4034C14.9953 9.37293 15.8142 8.03785 16.6289 7.43176C17.2289 6.98533 19.2875 6.14499 19.5512 7.22903C19.7658 8.11243 18.4151 8.03575 17.8759 8.26264C17.3368 8.48953 16.805 9.05886 16.6182 9.62293C16.5007 9.98008 16.5082 10.6912 16.2765 10.8992V10.8981Z" fill="#157DC1"/>
</g>
<defs>
<clipPath id="clip0_5_250">
<rect width="41" height="27" fill="white" transform="translate(0.766998)"/>
</clipPath>
</defs>
</svg>
