<svg width="41" height="41" viewBox="0 0 41 41" fill="none" xmlns="http://www.w3.org/2000/svg">
<g clip-path="url(#clip0_25_112)">
<path d="M16.8131 16.8039L16.6387 18.8057C16.7259 18.8929 17.8975 17.8893 18.0633 17.773C18.535 17.4446 19.6893 16.6434 20.2277 16.6262C20.6563 16.6122 21.1171 16.9633 21.4994 17.1291L23.8931 18.8057L23.7187 16.8039C22.7883 16.3549 21.0687 15.3524 20.9179 14.2454L20.9093 1.11272C20.9674 0.405259 21.8795 0.27712 22.1649 0.909203L22.1972 13.8535C21.9893 14.3014 23.5744 15.347 23.6519 15.2598C23.7381 12.7562 23.947 9.25012 27.3098 9.54732C30.9516 9.86928 32.3396 13.23 34.0485 15.866C36.1622 19.1266 39.1331 22.4205 39.9752 26.3013C40.6094 29.2248 40.3111 35.6253 38.9285 38.313C37.9831 40.1511 36.0416 41.2053 34.1389 39.9562C32.8478 39.1088 32.093 38.0298 30.5327 37.3558C27.5123 36.0517 23.6465 37.2728 22.9498 32.929C22.6591 31.1189 22.9025 28.5873 23.1824 26.7579C23.4925 24.7335 24.2377 22.8006 24.0568 20.7159C23.3601 20.24 20.989 17.9959 20.2944 17.9367C19.7636 17.8915 17.0447 20.2841 16.4772 20.7159C16.2263 22.7252 17.0264 24.6473 17.3419 26.6071C17.638 28.4409 17.8759 31.1135 17.5852 32.929C16.881 37.3138 12.8957 36.041 9.84084 37.4365C8.36239 38.1117 7.63232 39.1637 6.39615 39.9562C4.58174 41.1203 2.70056 40.2664 1.71529 38.5262C0.216377 35.8848 -0.0775903 29.2313 0.557724 26.3013C1.34379 22.6789 3.72029 20.0655 5.69515 17.0914C7.38789 14.5405 8.93094 10.735 12.0903 9.78421C16.2521 8.53189 16.8153 12.0347 16.8821 15.2598C16.9768 15.3653 18.5349 14.2885 18.3368 13.8535L18.3314 1.11272C18.3853 0.43541 19.2349 0.28035 19.5622 0.853209L19.6161 14.2465C19.4632 15.3696 17.7521 16.3484 16.8153 16.805L16.8131 16.8039ZM13.236 10.8481C10.2511 11.1841 8.86957 14.5501 7.45249 16.7522C5.55624 19.6983 2.87716 22.6466 1.94895 26.0795C1.22534 28.7543 1.44178 35.7104 2.98484 38.0632C3.4274 38.7384 4.12302 39.322 4.98769 39.1939C5.73607 39.0829 7.18437 37.5474 7.90906 37.0381C8.87172 36.3608 9.90437 35.8515 11.063 35.5973C13.7076 35.0169 16.1423 35.677 16.4007 32.0687C16.6172 29.0461 15.8785 26.605 15.3735 23.7396C14.7801 20.3724 15.9032 16.9999 15.5102 13.6079C15.3379 12.1176 15.0526 10.6446 13.236 10.8492V10.8481ZM26.4505 10.8449C25.4103 11.0581 25.125 12.7239 25.0227 13.6079C24.7449 16.0049 25.2305 18.1973 25.3436 20.5404C25.4846 23.4553 24.4498 25.9783 24.2172 28.8425C23.9986 31.5378 23.5593 34.6336 26.8597 35.2258C29.2944 35.663 30.4713 35.5306 32.6249 37.037C34.0969 38.0675 35.6669 40.5065 37.3887 38.3044C38.6163 36.7344 38.8973 33.0722 38.9705 31.1006C39.2322 24.0529 36.5229 22.077 33.0492 16.7027C31.8195 14.7989 30.6393 12.0067 28.3823 11.1334C27.8558 10.9299 27.004 10.7307 26.4516 10.8438L26.4505 10.8449Z" fill="black"/>
<path d="M28.1659 18.4837L29.3084 20.3627C29.5916 21.0713 30.0417 21.685 30.355 22.3785C30.7965 23.3573 31.0829 24.3954 31.3005 25.4452C32.1339 25.6951 32.8909 26.1053 33.5165 26.7137C34.1421 27.3221 34.6558 28.3322 35.4451 28.7349C35.8995 28.9664 36.6069 28.9675 36.3507 29.7729C36.1482 30.4082 35.3309 30.124 34.9056 29.9204C33.5047 29.2496 32.9673 27.4341 31.4706 26.8677C31.6418 28.7693 31.7086 30.6204 32.6648 32.3217C32.8629 32.6738 33.6543 33.6171 33.7103 33.8562C33.8891 34.6336 33.1267 34.976 32.5991 34.4839C32.0714 33.9918 31.2671 32.4983 31.0054 31.8059C30.0029 29.1494 30.4885 26.1549 29.4548 23.4822C29.2448 23.4456 29.3299 23.5124 29.2868 23.5964C28.5675 25.007 27.7524 26.9108 27.4627 28.4614C27.3744 28.9309 27.4875 29.9064 27.0169 30.111C25.4922 30.7722 26.2696 27.8121 26.4322 27.1897C26.8156 25.7284 28.4911 22.9331 28.4103 21.7454C28.3231 20.4586 26.3913 18.5968 25.8088 17.4155C25.5826 16.7974 25.9024 16.3312 26.5754 16.4862C26.9545 16.5735 26.9975 17.1011 27.2527 17.1797C27.508 17.2583 27.9774 17.1625 28.2843 17.1959C30.5413 17.4478 31.1292 18.8671 32.6411 20.0935C33.1256 20.4866 34.0915 20.7213 33.65 21.5106C33.1924 22.3279 31.9045 21.1639 31.4684 20.7827C30.4261 19.8696 29.7122 18.6506 28.1659 18.4848V18.4837Z" fill="#157DC1"/>
<path d="M11.2375 23.4811C11.0307 23.4488 11.1126 23.4994 11.0695 23.5942C10.2608 25.3709 10.3836 27.7248 10.0874 29.6254C9.86131 31.0769 9.02355 33.4674 7.93275 34.4828C7.40404 34.9749 6.64274 34.6325 6.82149 33.8551C6.87533 33.6236 7.74216 32.5478 7.94675 32.1591C8.82542 30.4922 8.89218 28.7047 9.06017 26.8655C7.58818 27.4222 7.03255 29.2022 5.679 29.8914C5.09968 30.1864 4.0175 30.4158 4.14564 29.4122C4.21348 28.8845 4.73357 28.9136 5.08569 28.7338C5.87498 28.3311 6.38646 27.3221 7.01424 26.7126C7.63986 26.1042 8.39686 25.694 9.2303 25.4442C9.43705 24.3943 9.73532 23.3541 10.1757 22.3774C10.4891 21.684 10.9403 21.0702 11.2224 20.3616L12.3649 18.4826C10.8186 18.6484 10.1036 19.8685 9.06232 20.7805C8.67467 21.1197 7.8423 21.8412 7.32651 21.7938C6.90764 21.755 6.73104 21.3275 6.80642 20.942C6.86241 20.6567 7.65063 20.2884 7.93383 20.0548C9.4209 18.824 10.0239 17.4424 12.2464 17.1937C12.5522 17.1592 13.0153 17.2572 13.278 17.1775C13.5407 17.0979 13.5763 16.5713 13.9553 16.4841C14.4797 16.3635 14.8297 16.6014 14.7888 17.1517C14.7478 17.7019 12.9334 19.8965 12.5436 20.6352C12.1247 21.4298 11.988 21.7561 12.2486 22.6703C12.8247 24.6829 14.049 26.1225 14.3699 28.4484C14.4485 29.0181 14.7037 30.1401 13.8552 30.1756C13.0066 30.2112 13.1822 29.0654 13.0691 28.4592C12.7278 26.6362 11.8706 25.1803 11.2364 23.4801L11.2375 23.4811Z" fill="#157DC1"/>
</g>
<defs>
<clipPath id="clip0_25_112">
<rect width="40.0495" height="40" fill="white" transform="translate(0.242218 0.5)"/>
</clipPath>
</defs>
</svg>
